PathFileType	4	(X/Y/Z)	 s01c0103.trc
DataRate	CameraRate	NumFrames	NumMarkers	Units	OrigDataRate	OrigDataStartFrame	OrigNumFrames
200	200	5	48	mm	200	1251	2000
Frame#	Time	racr			lacr			c7			jug			rlel			rdr			llel			ldr			s2			lic			ric			lasi			rasi			rpsi			lpsi			rgt			lgt			rth1			rth2			rth3			rth4			rlfc			rsh1			rsh2			rsh3			rsh4			rlmal			rmmal			rcal			rtoe			rmt5			lth1			lth2			lth4			lth3			llfc			lsh1			lsh2			lsh3			lsh4			llmal			lmmal			lcal			ltoe			lmt5			SBIKE			LBIKE			RBIKE			
		X1	Y1	Z1	X2	Y2	Z2	X3	Y3	Z3	X4	Y4	Z4	X5	Y5	Z5	X6	Y6	Z6	X7	Y7	Z7	X8	Y8	Z8	X9	Y9	Z9	X10	Y10	Z10	X11	Y11	Z11	X12	Y12	Z12	X13	Y13	Z13	X14	Y14	Z14	X15	Y15	Z15	X16	Y16	Z16	X17	Y17	Z17	X18	Y18	Z18	X19	Y19	Z19	X20	Y20	Z20	X21	Y21	Z21	X22	Y22	Z22	X23	Y23	Z23	X24	Y24	Z24	X25	Y25	Z25	X26	Y26	Z26	X27	Y27	Z27	X28	Y28	Z28	X29	Y29	Z29	X30	Y30	Z30	X31	Y31	Z31	X32	Y32	Z32	X33	Y33	Z33	X34	Y34	Z34	X35	Y35	Z35	X36	Y36	Z36	X37	Y37	Z37	X38	Y38	Z38	X39	Y39	Z39	X40	Y40	Z40	X41	Y41	Z41	X42	Y42	Z42	X43	Y43	Z43	X44	Y44	Z44	X45	Y45	Z45	X46	Y46	Z46	X47	Y47	Z47	X48	Y48	Z48	
1251	6.2550	494.795575	1338.413028	-127.219819	512.933207	1294.100084	-423.448566	461.538612	1391.834994	-272.627637	447.911651	1228.053476	-270.488358	566.009919	1074.868951	-27.249868	733.458288	866.677694	-66.854023	558.052684	1034.883806	-535.947914	723.154442	864.389693	-431.455496	NaN	NaN	NaN	106.905481	1172.958387	-446.897515	85.259822	1187.732108	-117.447373	111.957029	1124.006939	-423.684934	115.410621	1145.257344	-148.803670	-41.015353	1207.271523	-233.469603	-38.329416	1203.022035	-339.441496	51.157181	1089.044870	-82.098715	50.459260	1025.813717	-462.403612	165.176727	1030.841355	-66.432847	247.616390	1014.269868	-63.553630	333.744425	986.935806	-71.175151	261.770790	1064.036810	-86.483370	413.032081	911.554394	-90.958265	327.432893	831.886721	-63.932458	272.161856	767.942071	-70.842076	207.878298	707.217256	-83.627296	309.438926	735.374430	-104.350939	117.724442	625.052940	-105.766531	164.186184	612.305682	-181.920329	70.598601	625.428396	-162.825950	265.253387	436.862930	-137.337135	165.425093	484.792705	-72.921735	101.820018	907.850574	-463.987996	162.351165	842.750744	-459.218329	203.077422	878.802945	-455.553618	212.881654	777.381663	-437.644332	276.435135	671.764419	-420.199273	230.197300	570.468434	-455.325055	224.187712	484.521997	-447.341285	215.565024	399.995727	-433.281060	279.564325	483.503967	-420.022612	203.799987	272.312404	-415.771461	235.349621	301.731919	-329.281224	157.643546	249.922408	-376.264227	430.103270	190.176056	-373.204730	325.543598	178.247622	-442.602265	-224.659827	892.936135	-256.214826	-12.871312	84.362961	-457.917861	-22.490483	81.006435	-57.789768	
1252	6.2600	493.733161	1340.166859	-128.061051	513.711366	1293.673296	-422.284088	461.132576	1392.760667	-272.995626	447.456834	1228.930747	-270.482347	563.761294	1075.426640	-26.760831	733.114189	868.456866	-67.044676	559.550851	1035.537753	-535.686930	723.838287	863.621558	-431.640542	NaN	NaN	NaN	107.042605	1172.538089	-448.207042	84.693302	1188.925125	-118.879216	112.058210	1123.765219	-425.339844	115.126433	1146.407731	-150.109848	-41.293680	1207.744561	-235.829552	-38.411318	1203.249556	-341.576903	50.731884	1091.527846	-83.512888	49.450369	1025.624017	-463.863687	164.915578	1034.925001	-68.007802	247.501293	1019.490182	-65.295333	334.061902	993.596181	-72.530069	260.976859	1069.397125	-88.340958	415.173776	919.628480	-91.547729	330.763588	839.054880	-64.676846	276.282366	774.403122	-71.705776	212.820325	712.717512	-84.664371	314.171422	742.182558	-104.872901	123.879405	629.474646	-107.213209	170.820734	617.292475	-182.806105	76.699752	628.774193	-164.294047	274.705013	444.036948	-137.072601	173.707967	490.489414	-73.298129	98.926631	907.320340	-465.793079	158.204596	840.871167	-461.507941	199.619202	876.282456	-458.304251	207.459695	774.643505	-439.944346	269.448149	668.261800	-422.711198	222.698087	567.009164	-457.327929	216.434702	481.047956	-448.834356	207.604467	396.688406	-434.424903	272.119836	479.914667	-422.186353	196.301007	269.120292	-416.326330	229.319761	299.486522	-330.028058	150.232790	247.947669	-376.864811	421.579832	183.481852	-373.252461	316.889684	173.298655	-442.861127	-224.781091	892.947096	-256.378665	-12.913972	84.383534	-457.958676	-22.516590	81.013307	-57.827576	
1253	6.2650	492.357668	1341.853626	-128.808249	514.338335	1293.259532	-421.204235	460.722826	1393.671872	-273.340888	446.955465	1229.784839	-270.421167	561.316513	1076.131281	-26.029280	732.602752	870.210840	-67.090292	560.706945	1036.024477	-535.530008	724.962874	863.741438	-431.993263	NaN	NaN	NaN	107.405311	1172.675680	-449.733897	84.050088	1190.177972	-120.230986	111.881243	1123.674006	-426.854242	114.751006	1147.544815	-151.696409	-41.697816	1208.306886	-237.996711	-38.587391	1203.608769	-343.533368	50.188214	1094.035067	-84.719139	48.360071	1025.658638	-465.204058	164.606407	1038.978405	-69.563448	247.294876	1024.655876	-66.947587	334.030153	1000.160499	-73.769362	260.206957	1074.584960	-90.339336	416.900640	927.682444	-92.148951	334.135527	845.706870	-65.528720	280.670286	780.380302	-72.633219	218.407684	717.650265	-85.792784	319.173962	748.536700	-105.485192	130.514468	633.264428	-108.365487	177.713520	621.576532	-183.618955	83.010294	631.383645	-165.421641	284.597662	450.705591	-136.757334	182.472826	495.495028	-73.910015	96.195022	907.046682	-467.564147	154.199067	839.503819	-463.768991	196.287676	874.201859	-461.054686	202.517172	771.683103	-441.918648	262.989314	665.183547	-425.134091	215.704604	564.194765	-459.198956	208.995212	478.319563	-450.331766	199.855887	393.970615	-435.602735	264.890669	476.918057	-424.170870	188.652236	266.668782	-416.963833	223.148248	297.698978	-330.783339	142.669892	246.652499	-377.437250	412.706480	177.261034	-373.365058	308.024959	168.937323	-443.194796	-224.881485	892.940413	-256.533323	-12.929144	84.305264	-458.039772	-22.526789	81.035585	-57.867779	
1254	6.2700	490.822855	1343.434935	-129.550504	514.810076	1292.879693	-420.254493	460.293252	1394.546369	-273.658639	446.408814	1230.609159	-270.298729	558.763459	1077.044461	-25.373720	731.911615	871.752333	-67.147746	561.531020	1036.411325	-535.465049	724.773298	862.888193	-432.664603	NaN	NaN	NaN	107.127973	1173.185901	-450.952413	83.490721	1191.462680	-121.425960	111.541569	1123.880750	-428.247093	114.246495	1149.208520	-153.300841	-42.644872	1209.378965	-239.761181	-38.849303	1204.105562	-345.307880	49.682519	1096.488397	-85.809943	47.093528	1025.860928	-466.720383	164.154052	1042.880097	-70.916173	247.012664	1029.606495	-68.388664	334.121312	1006.409886	-75.105896	258.876816	1079.753382	-92.559444	418.448393	935.258365	-93.171484	337.666476	851.902983	-66.419228	285.286895	785.620125	-73.551769	224.197989	721.775187	-86.689435	324.436154	754.340669	-106.295790	137.579860	636.183714	-109.229725	184.713136	625.186079	-184.347961	89.514964	633.388625	-166.035751	294.569968	456.858559	-136.451474	191.394348	499.740871	-74.300931	93.622007	907.045990	-469.301392	150.511770	838.440806	-465.967874	193.243856	872.490406	-463.741118	197.804378	769.844721	-444.429981	257.202571	662.752677	-427.379843	209.284350	562.091138	-460.955418	201.916223	476.263055	-451.709450	192.231029	392.049379	-436.621193	257.972058	474.599174	-426.019841	180.973207	264.940073	-417.613757	216.850348	296.366902	-331.543227	134.992485	246.043465	-377.958942	403.614566	171.694260	-373.477345	298.871429	165.178951	-443.413831	-224.915655	892.944676	-256.671822	-12.941379	84.309414	-458.077466	-22.546492	81.050120	-57.919676	
1255	6.2750	489.176347	1344.837216	-130.022279	515.138447	1292.538756	-419.451392	459.833596	1395.347173	-273.967144	445.818150	1231.397112	-270.108940	556.236288	1078.290218	-24.631834	731.076800	873.374816	-67.015354	562.042707	1036.612610	-535.571247	725.009687	862.333117	-433.289572	NaN	NaN	NaN	107.611018	1174.128562	-452.491563	82.859248	1192.853316	-122.462536	111.141861	1124.344587	-429.513954	113.659336	1150.682582	-154.676896	-43.576155	1210.349259	-241.517724	-39.182884	1204.735908	-346.902354	49.118917	1098.990914	-86.718758	46.059557	1026.203448	-467.723814	163.664171	1046.661655	-72.074983	246.737189	1034.353658	-69.691084	334.084619	1012.300608	-76.502885	257.823399	1084.511243	-94.354057	419.763649	942.521662	-94.336743	341.203480	857.544482	-67.423058	290.132716	790.262560	-74.383562	230.051906	725.442235	-87.061570	329.828166	759.799237	-107.265998	144.669144	638.299367	-109.675678	191.573896	628.112510	-185.015064	95.791167	634.291733	-166.876260	304.793421	462.567864	-136.038547	200.368576	503.291069	-74.216294	91.299175	907.215112	-470.884112	146.916381	837.583963	-468.468851	190.418299	871.178363	-466.338182	193.663862	768.469869	-446.836643	252.153061	660.685916	-429.436055	203.335916	560.702756	-462.482827	195.247037	474.957826	-452.932390	184.926610	390.941427	-437.590614	251.512377	472.809858	-427.612633	173.257965	263.977307	-418.323329	210.441327	295.487908	-332.303879	127.238342	246.125296	-378.405331	394.280960	166.556530	-373.613275	289.505340	162.035213	-443.671802	-224.979123	892.914957	-256.801474	-12.951039	84.274387	-458.114741	-22.566436	81.073057	-57.941471	
